PathFileType  4	(X/Y/Z) C:\Users\antoi\Documents\MyRepositories\mobilecap\ResultsAnalysis
DataRate	CameraRate	NumFrames	NumMarkers	Units	OrigDataRate	OrigDataStartFrame	OrigNumFrames
100.0	100.0	4	51	mm	100.0	249	662
Frame#	Time	r_knee			r_shank_antsup			r_ankle			r_calc			r_5meta			r_toe			L_knee			L_shank_antsup			L_ankle			L_calc			L_5meta			L_toe			r_sh2			r_sh3			r_sh4			L_sh2			L_sh3			r_thigh1			r_thigh2			r_thigh3			r_thigh4			r_thigh5			L_thigh1			L_thigh2			L_thigh3			L_thigh4			r.ASIS			r.PSIS			L.ASIS			L.PSIS			C7			R_Shoulder			L_Shoulder			R_Sternum			L_Sternum			R_humerus			R_elbow_med			R_elbow_lat			R_forearm			R_wrist_radius			R_wrist_ulna			L_humerus			L_elbow_med			L_elbow_lat			L_forearm			L_wrist_radius			L_wrist_ulna			R_HJC			L_HJC			R_HJC_reg			L_HJC_reg			
		X1	Y1	Z1	X2	Y2	Z2	X3	Y3	Z3	X4	Y4	Z4	X5	Y5	Z5	X6	Y6	Z6	X7	Y7	Z7	X8	Y8	Z8	X9	Y9	Z9	X10	Y10	Z10	X11	Y11	Z11	X12	Y12	Z12	X13	Y13	Z13	X14	Y14	Z14	X15	Y15	Z15	X16	Y16	Z16	X17	Y17	Z17	X18	Y18	Z18	X19	Y19	Z19	X20	Y20	Z20	X21	Y21	Z21	X22	Y22	Z22	X23	Y23	Z23	X24	Y24	Z24	X25	Y25	Z25	X26	Y26	Z26	X27	Y27	Z27	X28	Y28	Z28	X29	Y29	Z29	X30	Y30	Z30	X31	Y31	Z31	X32	Y32	Z32	X33	Y33	Z33	X34	Y34	Z34	X35	Y35	Z35	X36	Y36	Z36	X37	Y37	Z37	X38	Y38	Z38	X39	Y39	Z39	X40	Y40	Z40	X41	Y41	Z41	X42	Y42	Z42	X43	Y43	Z43	X44	Y44	Z44	X45	Y45	Z45	X46	Y46	Z46	X47	Y47	Z47	X48	Y48	Z48	X49	Y49	Z49	X50	Y50	Z50	X51	Y51	Z51	

249	2.48000000	-190.41599	464.78504	-402.79094	-131.93090	393.92430	-403.44449	-299.39213	97.38376	-404.41172	-368.99355	62.04843	-441.32964	-203.78775	47.14353	-357.20973	-152.39577	74.29688	-407.40128	-184.04890	452.93767	-917.58688	-137.56396	366.53360	-929.51856	-298.42560	98.06465	-901.90684	-369.45663	62.66012	-861.03118	-196.42595	42.98974	-949.83678	-153.84335	65.88062	-895.26027	-190.51259	294.92017	-383.68590	-202.58232	429.35239	-384.98259	-255.68100	330.39433	-379.26418	-219.64884	402.74955	-928.56419	-260.86913	286.49471	-934.20953	-479.59597	572.71813	-473.44893	-372.25715	549.35091	-450.60108	-369.66587	491.98427	-414.50353	-508.51182	465.59864	-452.68593	-394.78244	442.79688	-427.83626	-444.54322	528.30583	-909.56653	-307.99438	516.43114	-914.23797	-454.26463	415.48455	-874.28648	-313.64792	410.72619	-893.53705	-447.65978	583.00596	-551.24501	-620.52073	637.45058	-631.12755	-436.88356	574.90127	-795.48914	-625.61837	642.97996	-720.15547	-377.38486	985.66026	-693.15417	-274.06952	959.76362	-547.14164	-286.72529	950.96238	-842.87454	-253.60951	900.56519	-665.42792	-253.23737	897.65284	-707.93588	-228.43636	902.60544	-446.14118	-168.33512	704.97550	-368.82911	-140.21234	769.78676	-327.20509	-49.59533	793.01819	-434.05984	26.95364	802.13781	-532.30406	53.02575	780.92367	-522.60654	-245.92023	887.61443	-925.54089	-160.05562	665.81006	-964.19394	-145.41277	734.87406	-1015.71888	-88.93484	778.43658	-930.47730	-2.23919	820.77743	-822.89601	26.95606	811.24049	-839.32490	-525.55005	509.50425	-571.65161	-522.50059	509.92749	-778.09911	-514.36788	508.23119	-585.29591	-523.57902	518.22389	-746.16934	
250	2.49000000	-190.39007	464.62215	-403.00621	-131.71335	393.76013	-404.16774	-299.46969	97.52903	-404.44552	-369.08532	62.04948	-441.32044	-203.84080	47.51771	-357.21614	-152.48401	74.45136	-407.72492	-184.36011	452.64130	-918.54779	-137.61603	366.32283	-930.37996	-298.55656	98.27745	-902.25774	-369.52856	62.59953	-861.06880	-196.43965	43.15081	-949.82109	-153.91271	66.03246	-895.16550	-190.49700	294.85932	-384.23004	-202.27731	429.51428	-385.50509	-255.46594	330.65082	-379.98682	-219.54691	402.87114	-929.23180	-261.04500	286.66600	-934.73878	-481.89011	566.62588	-473.71334	-373.79812	545.66881	-450.73602	-370.31982	488.23125	-414.81873	-508.85661	459.21313	-452.32229	-394.47183	438.47123	-427.83455	-446.20826	522.97643	-909.46900	-309.59744	513.58974	-914.63219	-453.74114	409.57804	-874.39989	-313.12027	407.79521	-893.79446	-450.41431	578.33830	-550.45907	-624.23505	628.76114	-630.95891	-439.10047	570.43952	-795.11404	-629.36005	634.12211	-719.97866	-382.75788	980.81613	-691.91893	-279.75557	955.05282	-546.45307	-292.04167	947.17274	-841.04448	-258.83741	895.82937	-664.04108	-258.65213	893.57533	-706.57097	-233.23481	898.78458	-445.31533	-171.98303	701.77089	-367.25586	-143.89659	766.79651	-325.81998	-53.44893	789.72450	-433.05432	22.98855	798.65931	-531.42340	49.02218	777.53336	-521.64001	-250.13217	884.72504	-924.10086	-161.30210	664.85251	-960.98282	-148.40307	732.99190	-1014.73751	-92.07395	776.22612	-929.21372	-5.34014	818.26320	-821.07028	23.81836	808.92046	-837.48589	-526.54089	503.05971	-571.22122	-523.13632	503.48633	-777.66293	-515.31765	501.95525	-584.60870	-524.59795	511.66030	-745.77875	
251	2.50000000	-190.61227	464.60651	-403.40159	-131.54615	393.74525	-405.02032	-299.62942	97.61227	-404.54110	-369.18528	61.96778	-441.31688	-203.89424	48.07435	-357.06729	-152.57198	74.59210	-408.18352	-184.85936	452.33957	-919.45796	-137.67789	366.01743	-930.94196	-298.75322	98.32292	-902.36890	-369.66463	62.42699	-860.96991	-196.46376	43.25137	-949.74535	-154.02522	66.14012	-895.05066	-190.64087	294.97910	-384.64388	-202.30228	429.67244	-386.16691	-255.49846	331.01179	-380.55964	-219.44990	402.94291	-929.93184	-261.19569	286.83090	-935.27559	-484.36549	560.93082	-473.55747	-375.62282	542.23120	-450.97250	-371.00438	484.83443	-415.05625	-509.31375	453.39863	-450.78872	-394.26699	434.73665	-427.41686	-447.81990	517.11025	-908.80970	-311.24165	510.74506	-915.00776	-453.36538	403.65528	-875.31079	-312.85622	404.95731	-894.00259	-454.20478	573.38287	-549.05216	-628.51472	620.21581	-630.63460	-442.02948	565.24563	-794.56188	-633.58917	625.28911	-719.89156	-388.05376	975.45710	-690.71021	-285.58296	950.26571	-545.65984	-297.38891	943.30450	-839.36476	-263.98996	890.75154	-662.64619	-263.93861	889.47430	-704.71064	-237.97122	895.04863	-444.31993	-175.52794	698.44323	-365.62085	-147.57568	763.86304	-324.47022	-57.23509	786.57152	-431.99457	19.02618	795.33494	-530.56036	45.13710	774.29642	-520.51035	-253.97703	881.51308	-922.42713	-164.06303	662.58369	-960.60859	-151.36102	731.17958	-1013.62318	-95.05026	774.09232	-927.96885	-8.45864	815.83159	-819.32373	20.72527	806.68405	-835.43969	-528.72478	496.57361	-570.39957	-524.67799	496.65528	-776.83044	-517.43698	495.43321	-583.31935	-526.63454	504.62704	-745.12277	
252	2.51000000	-190.93604	464.70234	-403.95139	-131.52113	393.85626	-405.88554	-299.84984	97.78343	-404.56824	-369.32925	61.84170	-441.34121	-203.87828	48.49364	-357.12832	-152.65741	74.71533	-408.75868	-185.60257	452.01271	-920.11477	-137.89037	365.82514	-931.06056	-299.00267	98.20368	-902.27316	-369.87699	62.23820	-860.77016	-196.54130	43.26772	-949.53614	-154.16535	66.26603	-894.98519	-190.81521	295.30159	-384.80566	-202.40157	429.77147	-386.93036	-255.64089	331.32770	-380.94737	-219.57697	402.96471	-930.55173	-261.42624	286.90700	-935.71313	-486.52285	556.34420	-472.85090	-377.22752	539.49907	-450.94867	-371.46556	482.20414	-415.19385	-509.56559	448.50924	-448.91415	-393.78690	431.90953	-427.05690	-449.21767	511.39130	-908.36291	-312.87451	508.25780	-915.57065	-453.30881	398.33074	-876.46370	-312.93506	402.59054	-893.94442	-458.80490	568.58220	-547.46766	-633.64066	612.17737	-629.92986	-446.11910	560.18470	-794.42904	-638.73419	616.97903	-720.12863	-393.19304	968.99051	-689.59801	-290.86091	946.12272	-544.46873	-302.31985	940.05790	-838.19626	-268.17192	886.00679	-661.49121	-267.43582	885.06530	-703.58900	-242.58110	891.41648	-443.19312	-179.15632	694.85648	-363.99520	-151.17343	760.75306	-323.43059	-61.01400	783.34646	-430.90270	15.08350	792.15905	-529.67118	41.39953	771.25151	-519.33837	-257.87286	878.29631	-920.78733	-168.16762	659.06451	-962.32335	-154.20239	729.20535	-1012.36361	-97.78222	771.84331	-926.68789	-11.55887	813.51734	-817.74116	17.77555	804.63541	-833.74313	-531.94414	490.43699	-569.62866	-527.46915	490.16913	-776.05225	-520.66264	489.07916	-581.89553	-529.84923	497.74867	-744.71092	
